# File created by Blade
# Date/Time:  Thu Sep 25 19:32:06 2014
# Frame Rate: 120.000 fps
#------------------------------------------------------
:FULLY-SPECIFIED
:DEGREES
2795
root -3.943020 32.983142 -2.539646 2.976227 -6.061364 7.467766
Spine 2.163199 8.353393 -5.357908
Head -14.484372 -8.077079 0.645265
LeftShoulder -10.979069 15.400081 21.065481
LeftArm 24.196137 -20.731361 -44.524292
LeftForeArm 7.476161 -0.000000 15.232839
LeftHand -28.992516 -0.000000 -0.225236
LeftHandThumb1 -26.253704 0.000000 33.147579
RightShoulder -14.719958 21.786485 -36.763861
RightArm -1.743687 19.835091 38.587691
RightForeArm -6.597876 -0.000000 44.434854
RightHand -4.531528 0.000000 -9.229557
RightHandThumb1 -24.326973 -0.000000 -32.862282
LeftUpLeg -75.621109 -2.524571 -5.711855
LeftLeg 94.915583 -0.000000 -0.000000
LeftFoot 8.430623 16.980529 -19.167132
LeftToeBase 9.531922 -0.000000 -0.000000
RightUpLeg -10.666064 -2.566650 -0.964502
RightLeg 21.665295 -0.000000 -0.000000
RightFoot -13.872798 -12.911042 -5.611301
RightToeBase -2.371473 -0.000000 0.000000
2796
root -3.944516 32.991224 -2.543001 2.894797 -6.140197 7.561954
Spine 2.273730 8.403974 -5.382128
Head -14.464920 -8.021231 0.565526
LeftShoulder -10.964834 15.363638 21.037379
LeftArm 24.135684 -20.747518 -44.536693
LeftForeArm 7.494242 -0.000000 15.261249
LeftHand -28.937328 0.000000 -0.285323
LeftHandThumb1 -26.253704 0.000000 33.147579
RightShoulder -14.676741 21.840933 -36.658847
RightArm -1.488323 19.759480 38.809262
RightForeArm -6.409550 -0.000000 44.725943
RightHand -4.316195 -0.000000 -9.035864
RightHandThumb1 -24.326973 -0.000000 -32.862282
LeftUpLeg -76.383087 -2.391167 -5.803971
LeftLeg 95.492415 -0.000000 -0.000000
LeftFoot 8.511027 16.888740 -19.137380
LeftToeBase 9.439270 -0.000000 -0.000000
RightUpLeg -10.641016 -2.643546 -1.071093
RightLeg 21.723023 -0.000000 -0.000000
RightFoot -13.844742 -12.726358 -5.594505
RightToeBase -2.402744 -0.000000 0.000000
2797
root -3.945968 32.997135 -2.547649 2.829668 -6.218983 7.642831
Spine 2.368768 8.435549 -5.390005
Head -14.467583 -7.954473 0.489420
LeftShoulder -10.985510 15.324494 21.021551
LeftArm 24.099886 -20.740927 -44.565114
LeftForeArm 7.530300 -0.000000 15.254813
LeftHand -28.856124 0.000000 -0.395970
LeftHandThumb1 -26.253704 0.000000 33.147579
RightShoulder -14.646210 21.859542 -36.619419
RightArm -1.195238 19.705505 39.139480
RightForeArm -6.419171 -0.000000 44.947202
RightHand -4.008600 -0.000000 -8.870468
RightHandThumb1 -24.326973 -0.000000 -32.862282
LeftUpLeg -77.175255 -2.252506 -5.880312
LeftLeg 96.081182 -0.000000 -0.000000
LeftFoot 8.626192 16.726894 -19.253400
LeftToeBase 9.430491 -0.000000 -0.000000
RightUpLeg -10.630418 -2.680655 -1.157151
RightLeg 21.772503 -0.000000 -0.000000
RightFoot -13.826363 -12.605047 -5.581432
RightToeBase -2.423236 -0.000000 0.000000
2798
root -3.946704 33.001877 -2.554758 2.790547 -6.287053 7.703712
Spine 2.424872 8.455690 -5.370763
Head -14.433018 -7.871231 0.393376
LeftShoulder -10.994682 15.332998 20.995955
LeftArm 24.089421 -20.815993 -44.627645
LeftForeArm 7.580701 -0.000000 15.250767
LeftHand -28.816365 -0.000000 -0.469130
LeftHandThumb1 -26.253704 0.000000 33.147579
RightShoulder -14.579246 21.907723 -36.552629
RightArm -0.930312 19.553902 39.411283
RightForeArm -6.346518 -0.000000 45.213930
RightHand -3.935919 -0.000000 -8.823734
RightHandThumb1 -24.326973 -0.000000 -32.862282
LeftUpLeg -77.993475 -2.156710 -5.916099
LeftLeg 96.648950 -0.000000 -0.000000
LeftFoot 8.730704 16.637112 -19.079008
LeftToeBase 9.591513 -0.000000 -0.000000
RightUpLeg -10.636955 -2.656561 -1.219614
RightLeg 21.802414 -0.000000 -0.000000
RightFoot -13.780811 -12.562232 -5.576090
RightToeBase -2.459839 -0.000000 0.000000
2799
root -3.948582 33.007135 -2.558889 2.729393 -6.367679 7.764233
Spine 2.514894 8.496171 -5.344846
Head -14.414309 -7.800608 0.270194
LeftShoulder -11.032071 15.348361 20.908603
LeftArm 24.111462 -20.849660 -44.597733
LeftForeArm 7.546167 -0.000000 15.216752
LeftHand -28.794316 -0.000000 -0.413903
LeftHandThumb1 -26.253704 0.000000 33.147579
RightShoulder -14.555779 21.971427 -36.518983
RightArm -0.681673 19.388798 39.744142
RightForeArm -6.397210 -0.000000 45.528729
RightHand -3.928595 -0.000000 -8.758650
RightHandThumb1 -24.326973 -0.000000 -32.862282
LeftUpLeg -78.784972 -2.032458 -5.958247
LeftLeg 97.231064 -0.000000 -0.000000
LeftFoot 8.826478 16.530897 -19.082130
LeftToeBase 9.650807 -0.000000 -0.000000
RightUpLeg -10.595874 -2.568603 -1.280620
RightLeg 21.788135 -0.000000 -0.000000
RightFoot -13.733811 -12.579447 -5.563658
RightToeBase -2.493330 -0.000000 0.000000
2800
root -3.952305 33.012144 -2.564121 2.676155 -6.446436 7.824347
Spine 2.582257 8.504794 -5.327137
Head -14.370328 -7.720828 0.120005
LeftShoulder -11.053807 15.377460 20.824964
LeftArm 24.078356 -20.864811 -44.530326
LeftForeArm 7.401235 -0.000000 15.181377
LeftHand -28.777838 -0.000000 -0.303301
LeftHandThumb1 -26.253704 0.000000 33.147579
RightShoulder -14.561092 22.032223 -36.473036
RightArm -0.319318 19.233576 40.136431
RightForeArm -6.484645 0.000000 45.784367
RightHand -3.976313 -0.000000 -8.643028
RightHandThumb1 -24.326973 -0.000000 -32.862282
LeftUpLeg -79.577887 -1.928997 -5.993482
LeftLeg 97.790804 -0.000000 -0.000000
LeftFoot 8.851904 16.433803 -18.726585
LeftToeBase 9.959155 -0.000000 -0.000000
RightUpLeg -10.564274 -2.442510 -1.336002
RightLeg 21.776300 -0.000000 -0.000000
RightFoot -13.697979 -12.630912 -5.515080
RightToeBase -2.471160 -0.000000 0.000000
2801
root -3.951184 33.016215 -2.568111 2.626757 -6.517839 7.924120
Spine 2.643499 8.520367 -5.364045
Head -14.413025 -7.660068 0.028267
LeftShoulder -11.089497 15.409114 20.783906
LeftArm 24.083683 -20.921607 -44.525769
LeftForeArm 7.241955 0.000000 15.187089
LeftHand -28.899077 -0.000000 -0.287906
LeftHandThumb1 -26.253704 0.000000 33.147579
RightShoulder -14.490756 22.156752 -36.429632
RightArm -0.152494 19.023556 40.467868
RightForeArm -6.508770 -0.000000 46.093451
RightHand -3.968581 -0.000000 -8.529593
RightHandThumb1 -24.326973 -0.000000 -32.862282
LeftUpLeg -80.362149 -1.834322 -6.067496
LeftLeg 98.341472 -0.000000 -0.000000
LeftFoot 8.916918 16.300837 -18.969046
LeftToeBase 9.664342 -0.000000 -0.000000
RightUpLeg -10.545533 -2.338853 -1.442549
RightLeg 21.783317 -0.000000 -0.000000
RightFoot -13.690342 -12.647854 -5.491225
RightToeBase -2.436729 -0.000000 0.000000
2802
root -3.952764 33.020384 -2.571861 2.581680 -6.577390 7.992587
Spine 2.688752 8.533322 -5.360892
Head -14.403752 -7.602474 -0.073311
LeftShoulder -11.087712 15.400212 20.735544
LeftArm 24.004152 -20.955556 -44.480950
LeftForeArm 7.423623 0.000000 15.210267
LeftHand -28.889698 -0.000000 -0.324949
LeftHandThumb1 -26.253704 0.000000 33.147579
RightShoulder -14.433403 22.196748 -36.339835
RightArm 0.119239 18.825996 40.786322
RightForeArm -6.412956 -0.000000 46.357663
RightHand -3.613716 -0.000000 -8.324312
RightHandThumb1 -24.326973 -0.000000 -32.862282
LeftUpLeg -81.143377 -1.783226 -6.079244
LeftLeg 98.884670 -0.000000 -0.000000
LeftFoot 8.979797 16.190922 -18.973386
LeftToeBase 9.526391 -0.000000 -0.000000
RightUpLeg -10.516218 -2.260786 -1.513914
RightLeg 21.771394 -0.000000 -0.000000
RightFoot -13.672107 -12.653323 -5.441321
RightToeBase -2.440174 -0.000000 0.000000
2803
root -3.954674 33.023598 -2.575195 2.527384 -6.637383 8.053340
Spine 2.760022 8.585253 -5.345187
Head -14.408284 -7.572617 -0.171593
LeftShoulder -11.071544 15.371341 20.700690
LeftArm 23.953120 -20.991383 -44.450106
LeftForeArm 7.428726 -0.000000 15.230179
LeftHand -28.898703 -0.000000 -0.297949
LeftHandThumb1 -26.253704 0.000000 33.147579
RightShoulder -14.425159 22.224564 -36.304412
RightArm 0.362036 18.631347 41.178916
RightForeArm -6.371141 0.000000 46.674337
RightHand -3.543081 -0.000000 -8.113705
RightHandThumb1 -24.326973 -0.000000 -32.862282
LeftUpLeg -81.912734 -1.733685 -6.079418
LeftLeg 99.414566 -0.000000 -0.000000
LeftFoot 9.039379 16.045649 -18.886111
LeftToeBase 9.569103 -0.000000 -0.000000
RightUpLeg -10.478278 -2.187488 -1.574262
RightLeg 21.763583 -0.000000 -0.000000
RightFoot -13.655799 -12.670479 -5.412949
RightToeBase -2.474797 -0.000000 0.000000
